<svg width="101" height="101" viewBox="0 0 101 101" fill="none" xmlns="http://www.w3.org/2000/svg">
<g clip-path="url(#clip0_4_5)">
<path d="M59.8573 85.1522C60.9092 84.8283 61.4994 83.7131 61.1755 82.6613L49.0536 43.2801L45.2445 44.4525L57.3664 83.8337C57.6903 84.8858 58.8054 85.4761 59.8573 85.1522Z" fill="#5E4534"/>
<path d="M40.5735 15.7589C43.3974 24.9337 46.2216 34.1081 49.0455 43.2828C46.7449 44.9431 44.2694 46.0353 41.6876 46.7825L33.2156 19.2586C35.7971 18.5114 38.2728 17.4192 40.5735 15.7589Z" fill="#32373B"/>
<path d="M25.0509 20.7027C27.8347 20.4242 30.5805 20.0212 33.2156 19.2586L41.6876 46.7825C39.0526 47.5451 36.3071 47.9481 33.523 48.2266L25.0509 20.7027Z" fill="#D0D5D9"/>
<path d="M16.6566 21.401C19.4445 21.1357 22.2667 20.9811 25.0509 20.703L33.5229 48.2269C30.7391 48.5054 27.9169 48.6599 25.1287 48.9249L16.6566 21.401Z" fill="#32373B"/>
<path d="M8.3075 22.8101C11.0035 22.0576 13.8122 21.6717 16.6567 21.401L25.1287 48.9249C22.2843 49.1956 19.4755 49.5815 16.7795 50.334L8.3075 22.8101Z" fill="#D0D5D9"/>
<path d="M8.30748 22.8101L16.7795 50.334C14.097 51.0828 11.5257 52.1936 9.14216 53.9135C6.31825 44.7387 3.49401 35.564 0.670105 26.3895C3.05361 24.6693 5.62499 23.5586 8.30748 22.8101Z" fill="#32373B"/>
<path d="M40.5735 15.7589L42.6917 22.6397C40.391 24.3 37.9156 25.3922 35.3338 26.1394L33.2156 19.2586C35.7971 18.5114 38.2728 17.4192 40.5735 15.7589Z" fill="#D0D5D9"/>
<path d="M25.0509 20.7027C27.8347 20.4242 30.5805 20.0212 33.2156 19.2586L35.3337 26.1394C32.6987 26.902 29.9533 27.305 27.1691 27.5835L25.0509 20.7027Z" fill="#32373B"/>
<path d="M16.6566 21.401C19.4445 21.1357 22.2667 20.9811 25.0509 20.703L27.1691 27.5838C24.3852 27.8623 21.563 28.0168 18.7748 28.2818L16.6566 21.401Z" fill="#D0D5D9"/>
<path d="M8.3075 22.8101C11.0035 22.0576 13.8122 21.6717 16.6567 21.401L18.7748 28.2818C15.9304 28.5525 13.1216 28.9384 10.4257 29.6909L8.3075 22.8101Z" fill="#32373B"/>
<path d="M8.30748 22.8101L10.4257 29.6909C7.74283 30.4397 5.17179 31.5505 2.78829 33.2704L0.670105 26.3895C3.05361 24.6693 5.62499 23.5586 8.30748 22.8101Z" fill="#D0D5D9"/>
<path d="M44.8095 29.5209L46.9277 36.4017C44.627 38.062 42.1516 39.1542 39.5698 39.9013L37.4516 33.0205C40.0331 32.2734 42.5088 31.1811 44.8095 29.5209Z" fill="#D0D5D9"/>
<path d="M29.2869 34.4646C32.0708 34.1862 34.8166 33.7832 37.4516 33.0205L39.5698 39.9013C36.9347 40.664 34.1893 41.067 31.4051 41.3455L29.2869 34.4646Z" fill="#32373B"/>
<path d="M20.8926 35.1626C23.6805 34.8973 26.5027 34.7427 29.2869 34.4646L31.4051 41.3454C28.6213 41.6239 25.799 41.7784 23.0108 42.0434L20.8926 35.1626Z" fill="#D0D5D9"/>
<path d="M12.5435 36.5717C15.2395 35.8192 18.0482 35.4333 20.8927 35.1626L23.0109 42.0434C20.1664 42.3141 17.3577 42.7 14.6617 43.4525L12.5435 36.5717Z" fill="#32373B"/>
<path d="M12.5435 36.5717L14.6617 43.4525C11.9792 44.2013 9.40781 45.3121 7.02431 47.032L4.90613 40.1512C7.28997 38.4313 9.86101 37.3205 12.5435 36.5717Z" fill="#D0D5D9"/>
<path d="M41.4829 85.1522C40.431 84.8283 39.8408 83.7131 40.1647 82.6613L52.2866 43.2801L56.0957 44.4525L43.9738 83.8337C43.6499 84.8858 42.5347 85.4761 41.4829 85.1522Z" fill="#905835"/>
<path d="M60.7667 15.7589C57.9428 24.9337 55.1186 34.1081 52.2947 43.2828C54.5954 44.9431 57.0708 46.0353 59.6526 46.7825L68.1246 19.2586C65.5432 18.5114 63.0674 17.4192 60.7667 15.7589Z" fill="#32373B"/>
<path d="M76.2893 20.7027C73.5055 20.4242 70.7597 20.0212 68.1246 19.2586L59.6526 46.7825C62.2876 47.5451 65.0331 47.9481 67.8172 48.2266L76.2893 20.7027Z" fill="#D0D5D9"/>
<path d="M84.6836 21.401C81.8957 21.1357 79.0735 20.9811 76.2893 20.703L67.8173 48.2269C70.6011 48.5054 73.4233 48.6599 76.2115 48.9249L84.6836 21.401Z" fill="#32373B"/>
<path d="M93.0327 22.8101C90.3367 22.0576 87.528 21.6717 84.6835 21.401L76.2115 48.9249C79.0559 49.1956 81.8647 49.5815 84.5606 50.334L93.0327 22.8101Z" fill="#D0D5D9"/>
<path d="M93.0327 22.8101L84.5607 50.334C87.2432 51.0828 89.8145 52.1936 92.198 53.9135C95.022 44.7387 97.8462 35.5643 100.67 26.3895C98.2866 24.6693 95.7152 23.5586 93.0327 22.8101Z" fill="#32373B"/>
<path d="M60.7667 15.7589L58.6486 22.6397C60.9492 24.3 63.4247 25.3922 66.0065 26.1394L68.1247 19.2586C65.5432 18.5114 63.0674 17.4192 60.7667 15.7589Z" fill="#D0D5D9"/>
<path d="M76.2893 20.7027C73.5054 20.4242 70.7596 20.0212 68.1246 19.2586L66.0068 26.1397C68.6418 26.9023 71.3872 27.3054 74.1714 27.5838L76.2893 20.7027Z" fill="#32373B"/>
<path d="M84.6835 21.401C81.8957 21.1357 79.0734 20.9811 76.2893 20.703L74.1711 27.5838C76.9549 27.8623 79.7771 28.0168 82.5654 28.2818L84.6835 21.401Z" fill="#D0D5D9"/>
<path d="M93.0327 22.8101C90.3367 22.0576 87.528 21.6717 84.6836 21.401L82.5654 28.2818C85.4098 28.5525 88.2186 28.9384 90.9145 29.6909L93.0327 22.8101Z" fill="#32373B"/>
<path d="M93.0327 22.8101L90.9146 29.6909C93.597 30.4397 96.1684 31.5505 98.5519 33.2704L100.67 26.3895C98.2866 24.6693 95.7152 23.5586 93.0327 22.8101Z" fill="#D0D5D9"/>
<path d="M56.5307 29.5209L54.4125 36.4017C56.7132 38.062 59.1886 39.1542 61.7704 39.9013L63.8886 33.0205C61.3071 32.2734 58.8314 31.1811 56.5307 29.5209Z" fill="#D0D5D9"/>
<path d="M72.0533 34.4646C69.2694 34.1862 66.5236 33.7832 63.8886 33.0205L61.7704 39.9013C64.4055 40.664 67.1509 41.067 69.9351 41.3455L72.0533 34.4646Z" fill="#32373B"/>
<path d="M80.4475 35.1626C77.6596 34.8973 74.8374 34.7427 72.0532 34.4646L69.9351 41.3454C72.7189 41.6239 75.5411 41.7784 78.3293 42.0434L80.4475 35.1626Z" fill="#D0D5D9"/>
<path d="M88.7967 36.5717C86.1007 35.8192 83.292 35.4333 80.4475 35.1626L78.3293 42.0434C81.1738 42.3141 83.9825 42.7 86.6785 43.4525L88.7967 36.5717Z" fill="#32373B"/>
<path d="M88.7967 36.5717L86.6785 43.4525C89.361 44.2013 91.9324 45.3121 94.3159 47.032L96.4341 40.1512C94.0502 38.4313 91.4792 37.3205 88.7967 36.5717Z" fill="#D0D5D9"/>
</g>
<defs>
<clipPath id="clip0_4_5">
<rect width="100" height="100" fill="white" transform="translate(0.670105 0.5)"/>
</clipPath>
</defs>
</svg>
