<svg width="35" height="109" viewBox="0 0 35 109" fill="none" xmlns="http://www.w3.org/2000/svg">
<g clip-path="url(#clip0_5_238)">
<path d="M0.500061 10.84L0.500061 98.16C0.500061 104.147 5.35329 109 11.3401 109H23.8301C29.8168 109 34.6701 104.147 34.6701 98.16L34.6701 10.84C34.6701 4.85323 29.8168 0 23.8301 0H11.3401C5.35329 0 0.500061 4.85323 0.500061 10.84Z" fill="#312C2A"/>
<path d="M17.5801 34.34C24.942 34.34 30.9101 28.3719 30.9101 21.01C30.9101 13.648 24.942 7.67999 17.5801 7.67999C10.2181 7.67999 4.25006 13.648 4.25006 21.01C4.25006 28.3719 10.2181 34.34 17.5801 34.34Z" fill="#C81018"/>
<path d="M17.5801 67.83C24.942 67.83 30.9101 61.8619 30.9101 54.5C30.9101 47.138 24.942 41.17 17.5801 41.17C10.2181 41.17 4.25006 47.138 4.25006 54.5C4.25006 61.8619 10.2181 67.83 17.5801 67.83Z" fill="#F29617"/>
<path d="M17.5801 101.32C24.942 101.32 30.9101 95.352 30.9101 87.99C30.9101 80.628 24.942 74.66 17.5801 74.66C10.2181 74.66 4.25006 80.628 4.25006 87.99C4.25006 95.352 10.2181 101.32 17.5801 101.32Z" fill="#0B6C41"/>
<g style="mix-blend-mode:overlay">
<path d="M22.4128 27.7397C26.6004 26.0154 28.5973 21.2228 26.873 17.0352C25.1487 12.8475 20.3561 10.8506 16.1685 12.5749C11.9809 14.2992 9.98398 19.0918 11.7083 23.2794C13.4326 27.467 18.2252 29.464 22.4128 27.7397Z" fill="#E6E6E6"/>
</g>
<g style="mix-blend-mode:overlay">
<path d="M22.414 61.2372C26.6017 59.5128 28.5986 54.7203 26.8743 50.5327C25.15 46.345 20.3574 44.3481 16.1698 46.0724C11.9821 47.7967 9.98523 52.5893 11.7095 56.7769C13.4338 60.9645 18.2264 62.9615 22.414 61.2372Z" fill="#E6E6E6"/>
</g>
<g style="mix-blend-mode:overlay">
<path d="M28.0787 89.1153C28.802 84.6447 25.7642 80.4342 21.2936 79.7109C16.823 78.9877 12.6125 82.0255 11.8892 86.4961C11.1659 90.9667 14.2037 95.1772 18.6743 95.9004C23.1449 96.6237 27.3554 93.5859 28.0787 89.1153Z" fill="#E6E6E6"/>
</g>
<path d="M15.1901 20.5C15.1901 22.58 13.5101 24.26 11.4301 24.26C9.35007 24.26 7.67007 22.58 7.67007 20.5C7.67007 18.42 9.35007 16.74 11.4301 16.74C13.5101 16.74 15.1901 18.42 15.1901 20.5Z" fill="#E6E6E6"/>
<path d="M14.5101 55.35C14.5101 57.43 12.8301 59.11 10.7501 59.11C8.67005 59.11 6.99005 57.43 6.99005 55.35C6.99005 53.27 8.67005 51.59 10.7501 51.59C12.8301 51.59 14.5101 53.27 14.5101 55.35Z" fill="#E6E6E6"/>
<path d="M14.5101 88.16C14.5101 90.24 12.8301 91.92 10.7501 91.92C8.67005 91.92 6.99005 90.24 6.99005 88.16C6.99005 86.08 8.67005 84.4 10.7501 84.4C12.8301 84.4 14.5101 86.08 14.5101 88.16Z" fill="#E6E6E6"/>
</g>
<defs>
<clipPath id="clip0_5_238">
<rect width="34.17" height="109" fill="white" transform="translate(0.500061)"/>
</clipPath>
</defs>
</svg>
